<?xml version="1.0" encoding="UTF-8"?>
<svg id="Layer_1" data-name="Layer 1" xmlns="http://www.w3.org/2000/svg" viewBox="0 0 513 473.09">
  <defs>
    <style>
      .cls-1 {
        fill: #fff;
      }

      .cls-2 {
        fill: #d80000;
      }
    </style>
  </defs>
  <path class="cls-1" d="m411.31,350.39c1.15-2.1,1.85-3.03,2.2-4.08,9.89-29.6,11.76-59.7,4.78-90.14-8.54-37.24-27.62-67.66-58.42-90.84-22.88-17.22-48.3-28.25-76.26-33.07-32.45-5.6-64.09-1.7-94.45,11.28-28.62,12.24-53.59,29.79-70.99,55.7-29.04,43.27-35.76,90.66-21.61,140.89.82,2.91,2.1,5.68,3.16,8.52.35-.1.71-.2,1.06-.3,2.27-8.86,4.55-17.72,6.82-26.58.63.06,1.26.11,1.89.17,4.27,24.81,13.66,47.37,29.4,66.99,15.53,19.37,34.14,34.8,57.63,43.87-4.06-10.45-9.17-20.19-10.3-31.35,11.99,19.02,26.04,35.71,46.98,47.46-.79-6.39-1.4-11.27-2.15-17.3,8.44,12.09,15.99,22.89,24.51,35.09,8.67-12.45,16.33-23.45,24.76-35.56-.92,6.53-1.65,11.67-2.46,17.41,1.72-.44,2.75-.48,3.52-.94,18.71-11.43,32.45-27.65,43.62-46.33.64.33,1.28.66,1.92,1-4.01,10.28-8.02,20.57-12.02,30.85.42.3.83.6,1.25.9,46.95-22.68,76.08-59.58,86.39-111.54.59.05,1.18.09,1.77.14,2.23,8.83,4.46,17.67,7.01,27.75Zm95.2-218.19c.02-.54.05-1.08.07-1.62-83.97-40.5-167.94-80.99-252.04-121.55-2.05,1.17-4.55,2.76-7.19,4.07-6.57,3.25-13.22,6.32-19.8,9.54-31.7,15.5-63.39,31.02-95.08,46.53-24.07,11.78-48.1,23.64-72.26,35.24-4.19,2.01-5.52,4.56-4.77,8.94,2.16,12.64,4.16,25.3,6.15,37.97.48,3.08,1.88,4.93,4.96,6.13,19.24,7.47,38.39,15.2,57.61,22.73,5.49,2.15,7.8.39,8.65-5.69,3.07-22.09,6.28-44.16,9.31-66.26.49-3.55,2.19-5.53,5.39-7,22.31-10.27,45.2-18.53,69.54-22.79,52.75-9.24,102.8-1.64,150.24,23.08,2.09,1.09,4.15,3.94,4.55,6.26,1.57,9.01,2.53,18.14,3.58,27.24,1.57,13.56,2.9,27.15,4.59,40.7.73,5.86,2.22,6.55,7.68,4.47,6.38-2.43,12.74-4.9,19.07-7.45,24.55-9.88,49.1-19.77,73.63-29.71,8.74-3.54,17.42-7.21,26.12-10.81Zm-129.44,41.37c-.11-1.64-.05-3.31-.36-4.91-3.58-18.8-7.11-37.61-10.96-56.36-.42-2.04-2.4-4.5-4.31-5.39-27.4-12.83-56.14-20.76-86.41-22.69-42.96-2.74-83.78,6.21-123.06,23.06-1.74.75-3.43,3.21-3.88,5.16-3.82,16.71-7.37,33.49-10.95,50.25-.78,3.67-1.38,7.39-2.06,11.08,33.44-33.5,73.14-51.71,120.64-51.82,47.7-.11,87.54,18.08,121.34,51.63ZM14.81,289.69c5.54,1.39,9.97,2.64,14.45,3.59,16.14,3.42,32.07,2.27,47.83-2.38,2.98-.88,4.27-1.94,2.27-5.25-5.68-9.39-10.64-19.23-16.67-28.38-6.67-10.11-9.4-20.85-9.53-32.88-.21-20.63-1.26-41.26-2.04-61.89-.07-1.9-.69-3.78-1.05-5.67-.51.05-1.02.09-1.53.14-.23,1.71-.55,3.42-.66,5.13-1.47,22.75-3.05,45.5-4.27,68.27-.42,7.88-2.74,14.8-6.87,21.52-7.37,12.01-14.18,24.36-21.93,37.8ZM50.03,109.48c-15.36,7.55-30.03,14.76-44.7,21.98l.19,1.63c14.46,5.76,28.92,11.53,44.52,17.75v-41.35Z"/>
  <path d="m411.31,350.39c-2.54-10.08-4.78-18.91-7.01-27.75-.59-.05-1.18-.09-1.77-.14-10.3,51.95-39.44,88.86-86.39,111.54-.42-.3-.83-.6-1.25-.9,4.01-10.28,8.02-20.57,12.02-30.85-.64-.33-1.28-.66-1.92-1-11.17,18.68-24.91,34.9-43.62,46.33-.77.47-1.8.5-3.52.94.81-5.74,1.54-10.88,2.46-17.41-8.43,12.11-16.09,23.11-24.76,35.56-8.52-12.2-16.07-23.01-24.51-35.09.75,6.03,1.35,10.91,2.15,17.3-20.94-11.75-34.98-28.44-46.98-47.46,1.14,11.16,6.24,20.9,10.3,31.35-23.49-9.07-42.1-24.5-57.63-43.87-15.74-19.63-25.12-42.19-29.4-66.99-.63-.06-1.26-.11-1.89-.17-2.27,8.86-4.55,17.72-6.82,26.58-.35.1-.71.2-1.06.3-1.06-2.84-2.34-5.62-3.16-8.52-14.15-50.23-7.44-97.62,21.61-140.89,17.39-25.91,42.37-43.46,70.99-55.7,30.36-12.98,62-16.88,94.45-11.28,27.96,4.82,53.38,15.86,76.26,33.07,30.8,23.18,49.88,53.6,58.42,90.84,6.98,30.44,5.12,60.54-4.78,90.14-.35,1.05-1.06,1.99-2.2,4.08Zm-226.17-134.19c-2.56.7-3.61,1.09-4.69,1.26-31.45,5.08-49.82,38.22-37.42,67.53,7.89,18.66,27.3,31.13,47.13,30.28,21.2-.91,39.37-14.55,45.44-34.66,6.83-22.64-1.27-40.82-17.83-56.07-17.38-16-38.59-22.4-61.65-23.84-1.49-.09-3,.22-4.5.34,11.16,4.48,22.56,7.49,33.53,15.15Zm175.76-15.46c-1.72-.09-3.45-.38-5.13-.22-4.97.48-9.97.9-14.87,1.79-21.32,3.83-39.77,13-53.88,29.84-15.25,18.2-17.04,42.68-4.64,61.15,12.01,17.89,34.85,26.07,55.38,19.83,20.78-6.32,35.09-25.47,35.21-47.09.11-21.26-14.42-40.79-35.13-47.13-3.08-.94-6.22-1.67-9.74-2.6.8-1.1,1.06-1.88,1.57-2.1,10.29-4.48,20.61-8.89,31.23-13.45Zm-104.17,113.45c-.53-.03-1.05-.06-1.58-.1-1.02-2.52-2.16-5-3.05-7.57-4.17-12.08-3.29-10.6-12-3.01-2.5,2.18-4.16,4.31-2.44,7.66,4.99,9.73,9.93,19.49,15.03,29.16,1.96,3.72,4.39,3.85,6.49.03,4.15-7.55,8.52-15,12.26-22.76,4.92-10.22,4.7-10.32-3.76-17.59-4.13-3.54-4.47-3.45-6.25,1.5-1.53,4.24-3.13,8.46-4.7,12.68Z"/>
  <path class="cls-2" d="m506.51,132.2c-8.71,3.61-17.39,7.28-26.12,10.81-24.53,9.93-49.07,19.83-73.63,29.71-6.33,2.55-12.69,5.02-19.07,7.45-5.46,2.08-6.95,1.39-7.68-4.47-1.7-13.55-3.02-27.14-4.59-40.7-1.05-9.1-2.01-18.22-3.58-27.24-.4-2.32-2.46-5.18-4.55-6.26-47.43-24.72-97.49-32.32-150.24-23.08-24.34,4.26-47.23,12.52-69.54,22.79-3.2,1.47-4.9,3.45-5.39,7-3.03,22.1-6.24,44.17-9.31,66.26-.84,6.08-3.16,7.84-8.65,5.69-19.22-7.53-38.36-15.26-57.61-22.73-3.08-1.2-4.48-3.05-4.96-6.13-1.99-12.67-4-25.33-6.15-37.97-.75-4.39.59-6.94,4.77-8.94,24.16-11.6,48.19-23.46,72.26-35.24,31.69-15.51,63.38-31.03,95.08-46.53,6.58-3.22,13.23-6.29,19.8-9.54,2.64-1.31,5.14-2.9,7.19-4.07,84.1,40.56,168.07,81.06,252.04,121.55-.02.54-.05,1.08-.07,1.62Z"/>
  <path class="cls-2" d="m377.06,173.57c-33.8-33.55-73.64-51.74-121.34-51.63-47.5.11-87.2,18.32-120.64,51.82.68-3.69,1.28-7.41,2.06-11.08,3.58-16.77,7.13-33.54,10.95-50.25.45-1.95,2.13-4.41,3.88-5.16,39.28-16.84,80.1-25.79,123.06-23.06,30.27,1.93,59.01,9.86,86.41,22.69,1.9.89,3.89,3.35,4.31,5.39,3.85,18.75,7.39,37.56,10.96,56.36.3,1.6.25,3.27.36,4.91Z"/>
  <path class="cls-2" d="m14.81,289.69c7.75-13.44,14.56-25.79,21.93-37.8,4.12-6.72,6.44-13.63,6.87-21.52,1.23-22.77,2.81-45.52,4.27-68.27.11-1.72.44-3.42.66-5.13.51-.05,1.02-.09,1.53-.14.36,1.89.98,3.77,1.05,5.67.77,20.63,1.83,41.25,2.04,61.89.12,12.03,2.86,22.78,9.53,32.88,6.03,9.14,10.99,18.99,16.67,28.38,2.01,3.31.71,4.37-2.27,5.25-15.76,4.65-31.69,5.8-47.83,2.38-4.49-.95-8.91-2.2-14.45-3.59Z"/>
  <path class="cls-2" d="m50.03,109.48v41.35c-15.6-6.22-30.06-11.98-44.52-17.75l-.19-1.63c14.67-7.21,29.34-14.42,44.7-21.98Z"/>
  <path class="cls-1" d="m185.14,216.2c-10.97-7.67-22.37-10.67-33.53-15.15,1.5-.12,3.01-.44,4.5-.34,23.06,1.44,44.27,7.84,61.65,23.84,16.56,15.24,24.66,33.43,17.83,56.07-6.07,20.11-24.24,33.76-45.44,34.66-19.83.85-39.23-11.62-47.13-30.28-12.4-29.31,5.97-62.44,37.42-67.53,1.08-.17,2.12-.56,4.69-1.26Zm36.43,48.64c-.04-.66-.06-2.33-.25-3.98-.76-6.7-1.17-7.05-7.75-6.87-8.01.21-13.64-5.79-12.78-14.25.36-3.6-.63-5-4.07-5.89-13-3.36-27.45,2-35.07,13.32-8.24,12.23-7.84,26.97,1.04,38.67,8.45,11.14,22.99,15.68,36.15,11.3,13.89-4.62,22.69-16.74,22.73-32.31Z"/>
  <path class="cls-1" d="m360.89,200.74c-10.63,4.56-20.94,8.98-31.23,13.45-.51.22-.77,1-1.57,2.1,3.52.93,6.66,1.66,9.74,2.6,20.71,6.35,35.23,25.87,35.13,47.13-.11,21.62-14.43,40.77-35.21,47.09-20.53,6.24-43.37-1.93-55.38-19.83-12.4-18.47-10.61-42.95,4.64-61.15,14.11-16.84,32.55-26.02,53.88-29.84,4.91-.88,9.9-1.3,14.87-1.79,1.69-.16,3.42.13,5.13.22Zm-36.09,32.13c-16.32-.21-28.88,9.16-33.36,23.86-3.95,12.96.91,27.3,12.03,35.53,11.24,8.32,25.79,8.79,37.49,1.21,11.58-7.5,17.24-21.53,14.39-34.69-.87-4-2.18-5.53-6.63-5-8.26.98-14.62-4.99-13.69-13.16.58-5.08-1.44-6.58-5.62-7.15-1.98-.27-3.95-.52-4.61-.61Z"/>
  <path class="cls-1" d="m256.72,314.19c1.57-4.23,3.17-8.44,4.7-12.68,1.79-4.94,2.12-5.04,6.25-1.5,8.46,7.26,8.68,7.37,3.76,17.59-3.74,7.75-8.1,15.21-12.26,22.76-2.1,3.82-4.53,3.69-6.49-.03-5.1-9.67-10.04-19.43-15.03-29.16-1.72-3.36-.06-5.48,2.44-7.66,8.71-7.59,7.83-9.07,12,3.01.89,2.57,2.03,5.05,3.05,7.57.53.03,1.05.06,1.58.1Z"/>
  <path d="m221.57,264.84c-.04,15.57-8.84,27.69-22.73,32.31-13.16,4.38-27.7-.17-36.15-11.3-8.88-11.7-9.28-26.44-1.04-38.67,7.63-11.32,22.07-16.68,35.07-13.32,3.44.89,4.43,2.29,4.07,5.89-.85,8.47,4.78,14.47,12.78,14.25,6.58-.18,6.99.17,7.75,6.87.19,1.65.21,3.32.25,3.98Z"/>
  <path d="m324.81,232.87c.65.09,2.63.34,4.61.61,4.18.57,6.19,2.06,5.62,7.15-.93,8.17,5.43,14.14,13.69,13.16,4.45-.53,5.77,1,6.63,5,2.85,13.16-2.81,27.19-14.39,34.69-11.7,7.58-26.25,7.11-37.49-1.21-11.12-8.23-15.98-22.57-12.03-35.53,4.48-14.7,17.04-24.07,33.36-23.86Z"/>
</svg>